<?xml version="1.0" encoding="utf-8"?>
<!-- Generator: Adobe Illustrator 22.0.1, SVG Export Plug-In . SVG Version: 6.00 Build 0)  -->
<svg version="1.1" xmlns="http://www.w3.org/2000/svg" xmlns:xlink="http://www.w3.org/1999/xlink" x="0px" y="0px" width="140px" height="57px" viewBox="0 0 140 76" style="enable-background:new 0 0 139.7 76;" xml:space="preserve">
<style type="text/css">
	.st0{display:none;}
	.st1{fill:#7FA1C3;}
	.st2{fill:#fff;}
</style>
<g id="Layer_1" class="st0">
</g>
<g id="Logo">
	<g id="Logo_5_">
		<polygon class="st1" points="98.3,70.8 98.3,76 72.4,76 72.4,70.8 98.3,70.8 		"/>
		<path class="st2" d="M34.6,32.2v1.1h-5v-1c0-1.8-1-3.2-3.6-3.2c-2.2,0-3.3,1.1-3.3,2.8c0,1,0.4,1.7,1.1,2.2c0.7,0.5,2.1,1.2,4,2
			c2.6,1,4.4,2,5.4,3.1c1,1.1,1.6,2.7,1.6,4.7c0,4.6-3.4,7.3-8.8,7.3c-6,0-8.7-2.9-8.7-7.3v-1.5h5v1.1c0,2.3,1.3,3.5,3.8,3.5
			c2.3,0,3.6-1.1,3.6-2.8c0-2.1-0.9-2.7-5.3-4.4c-2.4-0.9-4.1-1.9-5.2-3c-1.1-1.1-1.6-2.7-1.6-4.8c0-4.1,3.1-7.1,8.5-7.1
			C31.9,24.9,34.6,27.9,34.6,32.2L34.6,32.2z"/>
		<polygon class="st2" points="44.4,25.3 49.5,25.3 49.5,46 58.5,46 58.5,50.7 44.4,50.7 44.4,25.3 		"/>
		<polygon class="st2" points="67.3,25.3 72.4,25.3 72.4,50.7 67.3,50.7 67.3,25.3 		"/>
		<path class="st2" d="M99.3,33v1.5h-5v-1.3c0-2.6-1.4-4-3.7-4c-2.5,0-4,1.9-4,4.9v7.7c0,3,1.5,4.9,4,4.9c2.3,0,3.7-1.4,3.7-4v-1.3
			h5V43c0,5-3,8.2-8.7,8.2c-5.8,0-9.2-3.7-9.2-9.5v-7.5c0-5.8,3.6-9.5,9.4-9.5C96.4,24.8,99.3,27.8,99.3,33L99.3,33z"/>
		<polygon class="st2" points="107.1,25.3 122.3,25.3 122.3,29.9 112.1,29.9 112.1,35.6 120.1,35.6 120.1,39.9 112.1,39.9 
			112.1,46.1 122.3,46.1 122.3,50.7 107.1,50.7 107.1,25.3 		"/>
		<polygon class="st2" points="72.4,70.8 5.2,70.8 5.2,5.2 134.5,5.2 134.5,63.3 139.7,63.3 139.7,0 0,0 0,76 0,76 72.4,76 
			72.4,70.8 		"/>
	</g>
</g>
</svg>
