<svg xmlns="http://www.w3.org/2000/svg" width="187.782" height="79.202" viewBox="0 0 187.782 79.202">
  <g id="Group_4482" data-name="Group 4482" transform="translate(-180.124 -204.141)">
    <g id="Group_4484" data-name="Group 4484" transform="translate(180.124 204.141)">
      <g id="Group_4483" data-name="Group 4483">
        <g id="Group_4482-2" data-name="Group 4482" transform="translate(0 0)">
          <path id="Path_15321" data-name="Path 15321" d="M347.419,254.5a25.657,25.657,0,0,0,19.989-30.068,25.261,25.261,0,0,0-29.918-19.764l-136.88,28.3a25.657,25.657,0,0,0-19.989,30.069,25.228,25.228,0,0,0,24.751,20.3,25.736,25.736,0,0,0,5.168-.535Z" transform="translate(-180.124 -204.142)" fill="none"/>
        </g>
        <path id="Path_15322" data-name="Path 15322" d="M357.265,231.169a2.661,2.661,0,1,0,2.661,2.661A2.661,2.661,0,0,0,357.265,231.169Zm0,4.859a2.2,2.2,0,1,1,2.2-2.2A2.2,2.2,0,0,1,357.265,236.027Zm.962-2.192a.726.726,0,0,0,.219-.582.748.748,0,0,0-.272-.648,1.346,1.346,0,0,0-.8-.2h-1.118v2.945l.483,0v-1.261h.454l.76,1.259h.549l-.824-1.294A1,1,0,0,0,358.227,233.835Zm-.947-.155h-.542v-.861h.585c.069,0,.144,0,.219.01a.7.7,0,0,1,.208.053.411.411,0,0,1,.15.123.33.33,0,0,1,.061.212.479.479,0,0,1-.056.252.4.4,0,0,1-.151.139.515.515,0,0,1-.216.06C357.455,233.676,357.37,233.68,357.28,233.681ZM207.041,262.471c-.216-1.085-1.7-1.4-3.76-1.839-.7-.149-1.424-.3-2.191-.506-3.507-.981-5.318-2.662-5.874-5.453-.8-4.021,2.284-8.064,6.877-9.012a8.9,8.9,0,0,1,8.643,2.558l.13.148-3.206,4.126-.189-.24a4.288,4.288,0,0,0-4.395-1.423,3.43,3.43,0,0,0-1.914,1.025,1.673,1.673,0,0,0-.444,1.4c.225,1.129,1.957,1.5,4.354,2.006.43.092.881.187,1.349.293,3.581.848,5.61,2.7,6.2,5.673a7.182,7.182,0,0,1-1.525,5.93,10.945,10.945,0,0,1-6.429,3.684,14.118,14.118,0,0,1-2.829.3,9.367,9.367,0,0,1-8.023-3.946l-.11-.158,3.587-3.87.171.229c1.49,1.989,3.745,2.738,6.52,2.165C206.192,265.1,207.272,263.632,207.041,262.471Zm22.52-4.414a12.678,12.678,0,0,0,.149,2.389,4.639,4.639,0,0,0,1.956,3.041,4.858,4.858,0,0,0,3.708.585,4.644,4.644,0,0,0,2.118-.8l.09-.073.015-4.962-.288.06c-.033.007-.093.025-.173.05-.136.041-.341.1-.569.152-.72.15-.994-.436-1.1-.952a5.1,5.1,0,0,1-.071-1.028l-.008-7.2a16.609,16.609,0,0,0-.23-2.8c-.827-4.146-4.765-6.466-9.357-5.518a7.772,7.772,0,0,0-5.475,4.149,2.062,2.062,0,0,0-2.485-2.033l-3.258.679v24.369l5.754-1.186V253.424c-.007-3.479,1.71-6.086,4.405-6.642a4.416,4.416,0,0,1,3.155.3,3.28,3.28,0,0,1,1.5,2.335,5.388,5.388,0,0,1,.144,1.393Zm33.16-24.2v17.214a5.006,5.006,0,0,0,.077,1.028,1.171,1.171,0,0,0,.454.8,1.2,1.2,0,0,0,.908.1,6.98,6.98,0,0,0,1.009-.3l.322-.117V257.7l-.111.071a7.056,7.056,0,0,1-2.227.807,5.012,5.012,0,0,1-2.947-.239,3.964,3.964,0,0,1-1.852-1.772c-1.356,2.3-3.784,3.83-7.224,4.54a12.606,12.606,0,0,1-2.522.264,10.559,10.559,0,0,1-5.793-1.645,10.788,10.788,0,0,1-4.642-7.186,14.2,14.2,0,0,1,2.024-10.324,13.373,13.373,0,0,1,8.422-5.967c3.945-.814,6.941.138,8.339,1.488a3.334,3.334,0,0,1,2.658-3.237Zm-5.524,12a5.261,5.261,0,0,0-2.509-3.644,6.149,6.149,0,0,0-3.141-.8,8.585,8.585,0,0,0-1.722.185,7.927,7.927,0,0,0-5.921,9.275c.7,3.509,3.6,5.365,7.215,4.619A7.923,7.923,0,0,0,257.2,245.858Zm96.528-16.888-17.305,3.573c.008.073.027.2.059.36a4.928,4.928,0,0,0,2.345,3.492,7.028,7.028,0,0,0,4.876.462,7.927,7.927,0,0,0,5.187-3.607l.143-.216,3.915,3.022-.122.186a13.523,13.523,0,0,1-8.75,5.956,15.012,15.012,0,0,1-3,.322,10.127,10.127,0,0,1-10.389-8.752c-1.531-7.687,3.162-15.166,10.462-16.673a10.278,10.278,0,0,1,8.2,1.472,10.985,10.985,0,0,1,4.274,6.959,10.8,10.8,0,0,1,.133,3.275Zm-5.9-3.252,0-.014a4.438,4.438,0,0,0-4.565-3.6,6.124,6.124,0,0,0-1.225.13,7.4,7.4,0,0,0-5.794,5.876Zm19.587-1.283a25.262,25.262,0,0,0-29.918-19.765l-8.366,1.73v5.142l9.351-1.933h0a20.251,20.251,0,0,1,23.989,15.847,20.6,20.6,0,0,1-16.028,24.109l-43.965,9.09V263.8l44.949-9.295h0a25.657,25.657,0,0,0,19.989-30.068Zm-67.773,23.337v16.612L275.886,269.3v-5.143l18.072-3.737V227.406l3.979-.823a1.4,1.4,0,0,1,1.686,1.353,9.3,9.3,0,0,1,5.7-3.4,10.49,10.49,0,0,1,8.042,1.494A11.259,11.259,0,0,1,318,233.305a14.312,14.312,0,0,1-1.8,9.951,12.751,12.751,0,0,1-8.409,6.149C304.405,250.1,301.235,249.449,299.635,247.773Zm6.686-3.673a7.96,7.96,0,0,0,6-9.1,5.756,5.756,0,0,0-5.85-4.933,7.893,7.893,0,0,0-1.579.168c-4.189.865-6.3,5.52-5.577,9.157A5.624,5.624,0,0,0,306.321,244.1Zm-33.27,9.161v16.62L210.54,282.808a25.734,25.734,0,0,1-5.168.535,25.23,25.23,0,0,1-24.751-20.3,25.657,25.657,0,0,1,19.989-30.069h0l125.671-25.986v29.774a7.952,7.952,0,0,0,.074,1.264,1.889,1.889,0,0,0,.825,1.288,2.39,2.39,0,0,0,1.762.21,5.948,5.948,0,0,0,1.249-.394l.348-.153v5.472l-.1.072a6.893,6.893,0,0,1-2.284.772,8.419,8.419,0,0,1-1.69.181,5.98,5.98,0,0,1-3.241-.878,5.823,5.823,0,0,1-2.545-3.929,16.433,16.433,0,0,1-.194-2.61l-.017-.005V213.335L201.594,237.913a20.571,20.571,0,0,0-16.028,24.109,20.232,20.232,0,0,0,23.99,15.847l57.819-11.957V232.9l3.979-.823a1.4,1.4,0,0,1,1.686,1.353,9.3,9.3,0,0,1,5.7-3.4,10.49,10.49,0,0,1,8.042,1.494,11.256,11.256,0,0,1,4.634,7.273,14.313,14.313,0,0,1-1.8,9.951,12.75,12.75,0,0,1-8.409,6.148C277.82,255.593,274.651,254.937,273.052,253.261Zm6.686-3.672a7.96,7.96,0,0,0,6-9.1,5.755,5.755,0,0,0-5.849-4.932,7.887,7.887,0,0,0-1.579.168,6.937,6.937,0,0,0-4.594,3.443,8.333,8.333,0,0,0-.982,5.713,6.1,6.1,0,0,0,2.432,3.915A5.811,5.811,0,0,0,279.737,249.589Z" transform="translate(-180.124 -204.141)" fill="#104880"/>
      </g>
    </g>
  </g>
</svg>
