<?xml version="1.0" encoding="utf-8"?>
<!-- Generator: Adobe Illustrator 19.0.0, SVG Export Plug-In . SVG Version: 6.00 Build 0)  -->
<svg version="1.1" id="Calque_1" xmlns="http://www.w3.org/2000/svg" xmlns:xlink="http://www.w3.org/1999/xlink" x="0px" y="0px"
	 viewBox="0 0 135 38" style="enable-background:new 0 0 135 38;" xml:space="preserve">
<style type="text/css">
	.st0{fill:#010101;}
	.st1{fill:#e11d48;}
</style>
<g id="XMLID_31_">
	<path id="XMLID_32_" class="st0" d="M100.1,12.1c-6,0-10.8,4.8-10.8,10.8c0,6,4.8,10.8,10.8,10.8c6,0,10.8-4.8,10.8-10.8
		C110.9,17,106.1,12.1,100.1,12.1z M100.1,29.6c-3.7,0-6.6-3-6.6-6.6c0-3.7,3-6.6,6.6-6.6c3.7,0,6.6,3,6.6,6.6
		C106.7,26.6,103.7,29.6,100.1,29.6z"/>
</g>
<g id="XMLID_27_">
	<path id="XMLID_28_" class="st0" d="M46.4,26.6c-1.2,1.8-3.2,3-5.5,3c-3.1,0-5.7-2.2-6.4-5h8.4v0h8.7c0.1-0.5,0.1-1,0.1-1.6
		c0-6-4.8-10.8-10.8-10.8c-6,0-10.8,4.8-10.8,10.8c0,6,4.8,10.8,10.8,10.8c4.7,0,8.7-3,10.2-7.2H46.4z M40.9,16.3
		c2.8,0,5.2,1.8,6.2,4.3H34.7C35.7,18.1,38.1,16.3,40.9,16.3z"/>
</g>
<g id="XMLID_25_">
	<path id="XMLID_5_" class="st0" d="M16.8,26.7c-1.2,1.7-3.2,2.9-5.5,2.9c-3.7,0-6.6-3-6.6-6.6c0-3.7,3-6.6,6.6-6.6
		c2.4,0,4.5,1.3,5.7,3.3h4.6c-1.4-4.3-5.5-7.5-10.3-7.5c-6,0-10.8,4.8-10.8,10.8c0,6,4.8,10.8,10.8,10.8c4.7,0,8.6-2.9,10.2-7.1
		H16.8z"/>
</g>
<g id="XMLID_23_">
	<rect id="XMLID_4_" x="61.2" y="4.9" class="st0" width="4.6" height="28.7"/>
</g>
<path id="XMLID_19_" class="st1" d="M124.7,10.9v-6h3.2v6l5.7-1.9l1,3l-5.7,1.9l3.5,4.8l-2.6,1.9l-3.5-4.8l-3.5,4.8l-2.6-1.9
	l3.5-4.8l-5.6-1.9l1-3L124.7,10.9z"/>
<g id="XMLID_15_">
	<rect id="XMLID_2_" x="75.2" y="4.9" class="st0" width="4.6" height="4.6"/>
	<rect id="XMLID_10_" x="75.2" y="13" class="st0" width="4.6" height="20.6"/>
</g>
</svg>
